# xmcd
#
# Track frame offsets: 
#        150
#        16622
#        33657
#        50820
#        65945
#        92135
#        113772
#        130982
#        164455
#        182015
#
# Disc length: 2742 seconds
#
# Revision: 2
# Processed by: cddbd v1.5.2PL0 Copyright (c) Steve Scherf et al.
# Submitted via: ExactAudioCopy v0.95b4
#
DISCID=8b0ab40a
DTITLE=Bernard Allison - The Next Generation
DYEAR=1990
DGENRE=Blues
TTITLE0=Low down and dirty
TTITLE1=Master of disaster
TTITLE2=Help
TTITLE3=Walkin'
TTITLE4=Baby child
TTITLE5=Next generation
TTITLE6=Wonderful site
TTITLE7=Trav'lin'
TTITLE8=B.A.'s knocking at your door
TTITLE9=Boogie Woogie boy
EXTD=
EXTT0=
EXTT1=
EXTT2=
EXTT3=
EXTT4=
EXTT5=
EXTT6=
EXTT7=
EXTT8=
EXTT9=
PLAYORDER=
